<?xml version="1.0" encoding="UTF-8"?>
<svg xmlns="http://www.w3.org/2000/svg" xmlns:xlink="http://www.w3.org/1999/xlink" width="375pt" height="374.999991pt" viewBox="0 0 375 374.999991" version="1.2">
<defs>
<clipPath id="clip1">
  <path d="M 182 7.316406 L 194 7.316406 L 194 19 L 182 19 Z M 182 7.316406 "/>
</clipPath>
<clipPath id="clip2">
  <path d="M 8.441406 171 L 16 171 L 16 178 L 8.441406 178 Z M 8.441406 171 "/>
</clipPath>
<clipPath id="clip3">
  <path d="M 186 363 L 190 363 L 190 367.316406 L 186 367.316406 Z M 186 363 "/>
</clipPath>
<clipPath id="clip4">
  <path d="M 362 181 L 366.191406 181 L 366.191406 186 L 362 186 Z M 362 181 "/>
</clipPath>
<clipPath id="clip5">
  <path d="M 314 81 L 366.191406 81 L 366.191406 270 L 314 270 Z M 314 81 "/>
</clipPath>
<clipPath id="clip6">
  <path d="M 88.917969 142 L 285 142 L 285 233.785156 L 88.917969 233.785156 Z M 88.917969 142 "/>
</clipPath>
</defs>
<g id="surface1">
<path style=" stroke:none;fill-rule:nonzero;fill:rgb(100%,100%,100%);fill-opacity:1;" d="M 124.875 118.695312 C 124.875 120.480469 123.425781 121.929688 121.636719 121.929688 C 119.851562 121.929688 118.402344 120.480469 118.402344 118.695312 C 118.402344 116.910156 119.851562 115.460938 121.636719 115.460938 C 123.425781 115.460938 124.875 116.910156 124.875 118.695312 "/>
<path style=" stroke:none;fill-rule:nonzero;fill:rgb(100%,100%,100%);fill-opacity:1;" d="M 134.199219 183.226562 C 134.199219 185.011719 132.75 186.460938 130.964844 186.460938 C 129.175781 186.460938 127.726562 185.011719 127.726562 183.226562 C 127.726562 181.4375 129.175781 179.992188 130.964844 179.992188 C 132.75 179.992188 134.199219 181.4375 134.199219 183.226562 "/>
<path style=" stroke:none;fill-rule:nonzero;fill:rgb(100%,100%,100%);fill-opacity:1;" d="M 185.101562 134.496094 C 185.101562 135.636719 184.175781 136.566406 183.03125 136.566406 C 181.886719 136.566406 180.960938 135.636719 180.960938 134.496094 C 180.960938 133.351562 181.886719 132.425781 183.03125 132.425781 C 184.175781 132.425781 185.101562 133.351562 185.101562 134.496094 "/>
<path style=" stroke:none;fill-rule:nonzero;fill:rgb(100%,100%,100%);fill-opacity:1;" d="M 199.808594 47.542969 C 199.808594 49.332031 198.363281 50.777344 196.574219 50.777344 C 194.789062 50.777344 193.339844 49.332031 193.339844 47.542969 C 193.339844 45.757812 194.789062 44.308594 196.574219 44.308594 C 198.363281 44.308594 199.808594 45.757812 199.808594 47.542969 "/>
<path style=" stroke:none;fill-rule:nonzero;fill:rgb(100%,100%,100%);fill-opacity:1;" d="M 133.035156 63.148438 C 133.035156 64.292969 132.105469 65.222656 130.964844 65.222656 C 129.820312 65.222656 128.894531 64.292969 128.894531 63.148438 C 128.894531 62.003906 129.820312 61.078125 130.964844 61.078125 C 132.105469 61.078125 133.035156 62.003906 133.035156 63.148438 "/>
<path style=" stroke:none;fill-rule:nonzero;fill:rgb(100%,100%,100%);fill-opacity:1;" d="M 82.710938 158.703125 C 82.710938 159.847656 81.785156 160.773438 80.640625 160.773438 C 79.496094 160.773438 78.570312 159.847656 78.570312 158.703125 C 78.570312 157.558594 79.496094 156.628906 80.640625 156.628906 C 81.785156 156.628906 82.710938 157.558594 82.710938 158.703125 "/>
<path style=" stroke:none;fill-rule:nonzero;fill:rgb(100%,100%,100%);fill-opacity:1;" d="M 80.640625 93.089844 C 80.640625 94.234375 79.710938 95.160156 78.570312 95.160156 C 77.425781 95.160156 76.496094 94.234375 76.496094 93.089844 C 76.496094 91.945312 77.425781 91.019531 78.570312 91.019531 C 79.710938 91.019531 80.640625 91.945312 80.640625 93.089844 "/>
<path style=" stroke:none;fill-rule:nonzero;fill:rgb(100%,100%,100%);fill-opacity:1;" d="M 213.453125 224.628906 C 213.453125 225.777344 212.527344 226.703125 211.382812 226.703125 C 210.242188 226.703125 209.3125 225.777344 209.3125 224.628906 C 209.3125 223.484375 210.242188 222.558594 211.382812 222.558594 C 212.527344 222.558594 213.453125 223.484375 213.453125 224.628906 "/>
<path style=" stroke:none;fill-rule:nonzero;fill:rgb(100%,100%,100%);fill-opacity:1;" d="M 207.773438 183.226562 C 207.773438 185.011719 206.324219 186.460938 204.535156 186.460938 C 202.75 186.460938 201.300781 185.011719 201.300781 183.226562 C 201.300781 181.4375 202.75 179.992188 204.535156 179.992188 C 206.324219 179.992188 207.773438 181.4375 207.773438 183.226562 "/>
<path style=" stroke:none;fill-rule:nonzero;fill:rgb(100%,100%,100%);fill-opacity:1;" d="M 118.402344 256.367188 C 118.402344 258.152344 116.953125 259.601562 115.167969 259.601562 C 113.382812 259.601562 111.929688 258.152344 111.929688 256.367188 C 111.929688 254.582031 113.382812 253.132812 115.167969 253.132812 C 116.953125 253.132812 118.402344 254.582031 118.402344 256.367188 "/>
<path style=" stroke:none;fill-rule:nonzero;fill:rgb(100%,100%,100%);fill-opacity:1;" d="M 32.960938 222.558594 C 32.960938 224.34375 31.511719 225.796875 29.722656 225.796875 C 27.9375 225.796875 26.488281 224.34375 26.488281 222.558594 C 26.488281 220.773438 27.9375 219.324219 29.722656 219.324219 C 31.511719 219.324219 32.960938 220.773438 32.960938 222.558594 "/>
<path style=" stroke:none;fill-rule:nonzero;fill:rgb(100%,100%,100%);fill-opacity:1;" d="M 24.953125 139.800781 C 24.953125 141.589844 23.503906 143.035156 21.71875 143.035156 C 19.929688 143.035156 18.484375 141.589844 18.484375 139.800781 C 18.484375 138.015625 19.929688 136.566406 21.71875 136.566406 C 23.503906 136.566406 24.953125 138.015625 24.953125 139.800781 "/>
<path style=" stroke:none;fill-rule:nonzero;fill:rgb(100%,100%,100%);fill-opacity:1;" d="M 260.324219 108.378906 C 260.324219 110.164062 258.878906 111.613281 257.089844 111.613281 C 255.304688 111.613281 253.855469 110.164062 253.855469 108.378906 C 253.855469 106.589844 255.304688 105.140625 257.089844 105.140625 C 258.878906 105.140625 260.324219 106.589844 260.324219 108.378906 "/>
<path style=" stroke:none;fill-rule:nonzero;fill:rgb(100%,100%,100%);fill-opacity:1;" d="M 76.496094 217.253906 C 76.496094 218.398438 75.570312 219.324219 74.425781 219.324219 C 73.28125 219.324219 72.355469 218.398438 72.355469 217.253906 C 72.355469 216.109375 73.28125 215.183594 74.425781 215.183594 C 75.570312 215.183594 76.496094 216.109375 76.496094 217.253906 "/>
<path style=" stroke:none;fill-rule:nonzero;fill:rgb(100%,100%,100%);fill-opacity:1;" d="M 74.425781 290.878906 C 74.425781 292.023438 73.5 292.949219 72.355469 292.949219 C 71.214844 292.949219 70.285156 292.023438 70.285156 290.878906 C 70.285156 289.734375 71.214844 288.808594 72.355469 288.808594 C 73.5 288.808594 74.425781 289.734375 74.425781 290.878906 "/>
<path style=" stroke:none;fill-rule:nonzero;fill:rgb(100%,100%,100%);fill-opacity:1;" d="M 163.292969 224.628906 C 163.292969 225.777344 162.363281 226.703125 161.21875 226.703125 C 160.074219 226.703125 159.148438 225.777344 159.148438 224.628906 C 159.148438 223.484375 160.074219 222.558594 161.21875 222.558594 C 162.363281 222.558594 163.292969 223.484375 163.292969 224.628906 "/>
<path style=" stroke:none;fill-rule:nonzero;fill:rgb(100%,100%,100%);fill-opacity:1;" d="M 175.394531 274.316406 C 175.394531 275.460938 174.46875 276.390625 173.324219 276.390625 C 172.179688 276.390625 171.253906 275.460938 171.253906 274.316406 C 171.253906 273.175781 172.179688 272.246094 173.324219 272.246094 C 174.46875 272.246094 175.394531 273.175781 175.394531 274.316406 "/>
<path style=" stroke:none;fill-rule:nonzero;fill:rgb(100%,100%,100%);fill-opacity:1;" d="M 173.324219 93.089844 C 173.324219 94.234375 172.398438 95.160156 171.253906 95.160156 C 170.109375 95.160156 169.179688 94.234375 169.179688 93.089844 C 169.179688 91.945312 170.109375 91.019531 171.253906 91.019531 C 172.398438 91.019531 173.324219 91.945312 173.324219 93.089844 "/>
<path style=" stroke:none;fill-rule:nonzero;fill:rgb(100%,100%,100%);fill-opacity:1;" d="M 244.828125 150.738281 C 244.828125 151.882812 243.902344 152.808594 242.757812 152.808594 C 241.613281 152.808594 240.6875 151.882812 240.6875 150.738281 C 240.6875 149.59375 241.613281 148.667969 242.757812 148.667969 C 243.902344 148.667969 244.828125 149.59375 244.828125 150.738281 "/>
<path style=" stroke:none;fill-rule:nonzero;fill:rgb(100%,100%,100%);fill-opacity:1;" d="M 220.621094 103.070312 C 220.621094 104.214844 219.695312 105.140625 218.550781 105.140625 C 217.40625 105.140625 216.480469 104.214844 216.480469 103.070312 C 216.480469 101.929688 217.40625 101 218.550781 101 C 219.695312 101 220.621094 101.929688 220.621094 103.070312 "/>
<path style=" stroke:none;fill-rule:nonzero;fill:rgb(100%,100%,100%);fill-opacity:1;" d="M 246.898438 61.078125 C 246.898438 62.222656 245.972656 63.148438 244.828125 63.148438 C 243.683594 63.148438 242.757812 62.222656 242.757812 61.078125 C 242.757812 59.933594 243.683594 59.007812 244.828125 59.007812 C 245.972656 59.007812 246.898438 59.933594 246.898438 61.078125 "/>
<path style=" stroke:none;fill-rule:nonzero;fill:rgb(100%,100%,100%);fill-opacity:1;" d="M 159.148438 20.472656 C 159.148438 21.613281 158.222656 22.542969 157.078125 22.542969 C 155.9375 22.542969 155.007812 21.613281 155.007812 20.472656 C 155.007812 19.328125 155.9375 18.398438 157.078125 18.398438 C 158.222656 18.398438 159.148438 19.328125 159.148438 20.472656 "/>
<path style=" stroke:none;fill-rule:nonzero;fill:rgb(100%,100%,100%);fill-opacity:1;" d="M 92.304688 50.253906 C 92.304688 51.679688 91.148438 52.839844 89.714844 52.839844 C 88.285156 52.839844 87.128906 51.679688 87.128906 50.253906 C 87.128906 48.820312 88.285156 47.664062 89.714844 47.664062 C 91.148438 47.664062 92.304688 48.820312 92.304688 50.253906 "/>
<path style=" stroke:none;fill-rule:nonzero;fill:rgb(100%,100%,100%);fill-opacity:1;" d="M 265.503906 200.742188 C 265.503906 202.171875 264.34375 203.332031 262.914062 203.332031 C 261.484375 203.332031 260.324219 202.171875 260.324219 200.742188 C 260.324219 199.3125 261.484375 198.15625 262.914062 198.15625 C 264.34375 198.15625 265.503906 199.3125 265.503906 200.742188 "/>
<path style=" stroke:none;fill-rule:nonzero;fill:rgb(100%,100%,100%);fill-opacity:1;" d="M 302.675781 145.625 C 302.675781 147.054688 301.515625 148.214844 300.089844 148.214844 C 298.660156 148.214844 297.496094 147.054688 297.496094 145.625 C 297.496094 144.195312 298.660156 143.035156 300.089844 143.035156 C 301.515625 143.035156 302.675781 144.195312 302.675781 145.625 "/>
<path style=" stroke:none;fill-rule:nonzero;fill:rgb(100%,100%,100%);fill-opacity:1;" d="M 302.675781 72.703125 C 302.675781 74.136719 301.515625 75.292969 300.089844 75.292969 C 298.660156 75.292969 297.5 74.136719 297.5 72.703125 C 297.5 71.277344 298.660156 70.117188 300.089844 70.117188 C 301.515625 70.117188 302.675781 71.277344 302.675781 72.703125 "/>
<path style=" stroke:none;fill-rule:nonzero;fill:rgb(100%,100%,100%);fill-opacity:1;" d="M 231.78125 20.472656 C 231.78125 21.898438 230.621094 23.058594 229.191406 23.058594 C 227.761719 23.058594 226.601562 21.898438 226.601562 20.472656 C 226.601562 19.039062 227.761719 17.882812 229.191406 17.882812 C 230.621094 17.882812 231.78125 19.039062 231.78125 20.472656 "/>
<path style=" stroke:none;fill-rule:nonzero;fill:rgb(100%,100%,100%);fill-opacity:1;" d="M 245.34375 266.355469 C 245.34375 267.785156 244.1875 268.941406 242.757812 268.941406 C 241.328125 268.941406 240.167969 267.785156 240.167969 266.355469 C 240.167969 264.925781 241.328125 263.765625 242.757812 263.765625 C 244.1875 263.765625 245.34375 264.925781 245.34375 266.355469 "/>
<path style=" stroke:none;fill-rule:nonzero;fill:rgb(100%,100%,100%);fill-opacity:1;" d="M 138.339844 308.554688 C 138.339844 309.703125 137.414062 310.628906 136.269531 310.628906 C 135.125 310.628906 134.199219 309.703125 134.199219 308.554688 C 134.199219 307.414062 135.125 306.484375 136.269531 306.484375 C 137.414062 306.484375 138.339844 307.414062 138.339844 308.554688 "/>
<path style=" stroke:none;fill-rule:nonzero;fill:rgb(100%,100%,100%);fill-opacity:1;" d="M 292.1875 243.347656 C 292.1875 244.496094 291.257812 245.421875 290.117188 245.421875 C 288.972656 245.421875 288.042969 244.496094 288.042969 243.347656 C 288.042969 242.203125 288.972656 241.277344 290.117188 241.277344 C 291.257812 241.277344 292.1875 242.203125 292.1875 243.347656 "/>
<path style=" stroke:none;fill-rule:nonzero;fill:rgb(100%,100%,100%);fill-opacity:1;" d="M 217.597656 316.605469 C 217.597656 317.75 216.671875 318.679688 215.527344 318.679688 C 214.382812 318.679688 213.453125 317.75 213.453125 316.605469 C 213.453125 315.460938 214.382812 314.535156 215.527344 314.535156 C 216.671875 314.535156 217.597656 315.460938 217.597656 316.605469 "/>
<path style=" stroke:none;fill-rule:nonzero;fill:rgb(100%,100%,100%);fill-opacity:1;" d="M 338.5 186.460938 C 338.5 187.605469 337.570312 188.53125 336.425781 188.53125 C 335.28125 188.53125 334.355469 187.605469 334.355469 186.460938 C 334.355469 185.316406 335.28125 184.390625 336.425781 184.390625 C 337.570312 184.390625 338.5 185.316406 338.5 186.460938 "/>
<path style=" stroke:none;fill-rule:nonzero;fill:rgb(100%,100%,100%);fill-opacity:1;" d="M 227.8125 21.195312 L 228.714844 21.207031 L 228.804688 20.394531 Z M 159.238281 20.785156 L 174.328125 31.804688 L 226.085938 21.808594 L 226.125 21.773438 Z M 157.539062 20.296875 L 147.308594 37.023438 L 173.515625 31.960938 Z M 156.328125 21.113281 L 93.847656 47.347656 L 146.5 37.175781 Z M 175 32.292969 L 197.25 48.539062 L 196.210938 45.871094 L 225.074219 22.621094 Z M 89.601562 49.128906 L 91.003906 49.234375 L 90.113281 48.917969 Z M 93.296875 49.40625 L 137.011719 52.6875 L 146.070312 37.878906 L 91.125 48.488281 L 90.941406 48.566406 Z M 137.691406 52.738281 L 168.550781 55.054688 L 196.929688 49.050781 L 174.183594 32.449219 L 146.878906 37.722656 Z M 170.714844 55.214844 L 192.640625 56.859375 L 196.871094 49.683594 Z M 193.316406 56.910156 L 196.46875 57.148438 L 197.765625 49.847656 L 197.648438 49.554688 Z M 197.074219 57.191406 L 200.734375 57.46875 L 198.1875 50.933594 Z M 201.40625 57.515625 L 224.328125 59.234375 L 228.628906 21.933594 L 226.347656 22.375 L 196.9375 46.0625 L 197.761719 48.171875 L 198.21875 47.386719 L 198.78125 47.597656 L 198.390625 49.789062 Z M 95.457031 50.175781 L 130.832031 62.78125 L 136.65625 53.265625 Z M 137.335938 53.320312 L 131.476562 62.894531 L 131.664062 62.851562 L 166.429688 55.5 Z M 245.515625 59.78125 L 298.691406 73 L 299.667969 71.597656 L 229.863281 20.5625 Z M 300.390625 73.742188 L 300.390625 74.417969 L 300.660156 73.53125 Z M 298.953125 73.691406 L 298.332031 74.574219 L 299.34375 73.785156 Z M 89.828125 49.753906 L 102.664062 78.65625 L 130.023438 63.449219 L 131.214844 64.3125 L 131.460938 62.917969 L 131.09375 63.519531 L 93.167969 50.003906 Z M 89.792969 51.167969 L 79.25 91.671875 L 102.132812 78.953125 Z M 131.644531 65.375 L 127.035156 91.707031 L 167.597656 91.496094 Z M 102.910156 79.214844 L 108.507812 91.808594 L 126.421875 91.710938 L 131.101562 64.976562 L 129.980469 64.164062 Z M 102.378906 79.507812 L 79.984375 91.957031 L 107.847656 91.808594 Z M 169.449219 92.089844 L 169.703125 92.273438 L 170.046875 92.085938 Z M 170.246094 92.667969 L 171.160156 93.332031 L 192.296875 57.441406 L 168.589844 55.664062 L 131.992188 63.40625 L 131.761719 64.710938 L 168.625 91.488281 L 171.25 91.476562 L 171.398438 92.042969 Z M 172.21875 92.726562 L 189.386719 97 L 196.359375 57.746094 L 192.972656 57.492188 Z M 201.648438 58.144531 L 218.832031 102.1875 L 219.273438 103.0625 L 219.273438 103.035156 L 224.253906 59.839844 Z M 224.929688 59.28125 L 245.0625 60.792969 L 245.117188 60.992188 L 258.191406 105.792969 L 296.714844 75.832031 L 298.320312 73.53125 L 245.070312 60.292969 L 245.011719 60.152344 L 229.355469 20.921875 Z M 219.910156 102.800781 L 257 106.71875 L 257.675781 106.191406 L 244.59375 61.367188 L 224.863281 59.886719 Z M 258.894531 108.210938 L 268.144531 116.785156 L 295.546875 77.511719 L 258.371094 106.417969 Z M 78.917969 92.949219 L 118.953125 117.621094 L 119.277344 117.550781 L 108.113281 92.414062 L 79.015625 92.570312 Z M 126.929688 92.316406 L 122.449219 117.910156 L 169.113281 92.59375 L 168.425781 92.097656 Z M 119.964844 117.597656 L 121.433594 119.28125 L 121.300781 118.535156 L 121.769531 118.277344 L 126.3125 92.320312 L 108.773438 92.410156 Z M 79.3125 93.902344 L 96.351562 122.703125 L 118.105469 117.8125 Z M 78.914062 94.425781 L 79.925781 126.398438 L 95.730469 122.84375 Z M 268.597656 117.199219 L 283.210938 130.746094 L 299.785156 76.410156 L 299.785156 74.214844 L 297.160156 76.253906 Z M 189.867188 97.742188 L 183.84375 131.652344 L 216.121094 104.273438 Z M 172.824219 93.503906 L 182.183594 133.0625 L 183.121094 132.265625 L 189.28125 97.597656 Z M 122.679688 120.703125 L 181.558594 133.589844 L 181.664062 133.5 L 172.074219 92.976562 L 171.34375 94.214844 L 169.65625 92.988281 L 122.316406 118.671875 L 122.128906 119.726562 L 122.210938 120.167969 Z M 182.347656 133.761719 L 182.835938 133.867188 L 182.953125 133.203125 L 182.339844 133.722656 Z M 183.429688 133.996094 L 184.257812 134.179688 L 226.417969 118.71875 L 218.28125 102.433594 L 200.980469 58.09375 L 196.96875 57.792969 L 189.976562 97.144531 L 217.417969 103.972656 L 183.679688 132.585938 Z M 23.71875 137.179688 L 23.855469 139.007812 L 79.320312 126.535156 L 78.285156 93.703125 Z M 22.871094 139.851562 L 23.320312 140 L 23.304688 139.753906 Z M 123.351562 121.472656 L 142.667969 143.550781 L 180.820312 134.21875 L 180.980469 134.082031 Z M 283.707031 131.203125 L 299.1875 145.546875 L 299.785156 145.496094 L 299.785156 78.484375 Z M 122.417969 121.328125 L 127.097656 147.359375 L 142.003906 143.710938 Z M 283.507812 131.847656 L 278.769531 147.382812 L 298.375 145.621094 Z M 227.261719 119.054688 L 241.96875 148.480469 L 255 108.878906 Z M 268.246094 117.699219 L 245.449219 150.378906 L 278.117188 147.441406 L 283.015625 131.390625 Z M 96.675781 123.253906 L 112.980469 150.8125 L 126.503906 147.503906 L 121.765625 121.125 L 121.289062 121.019531 L 121.433594 120.199219 L 120.792969 119.464844 L 118.84375 118.265625 Z M 23.949219 140.199219 L 80.324219 158.28125 L 79.339844 127.152344 L 23.902344 139.621094 Z M 143.117188 144.0625 L 156.742188 159.636719 L 182.105469 134.96875 L 181.914062 134.566406 L 181.847656 134.273438 L 181.722656 134.246094 L 181.101562 134.773438 L 181.035156 134.789062 Z M 82.894531 158.792969 L 130.476562 181.566406 L 112.6875 151.503906 Z M 127.203125 147.957031 L 133.382812 182.34375 L 156.304688 160.058594 L 142.453125 144.226562 Z M 131.246094 181.9375 L 132.832031 182.695312 L 126.613281 148.101562 L 113.304688 151.355469 L 131.28125 181.742188 Z M 182.84375 135.097656 L 206.414062 182.730469 L 241.28125 150.566406 L 241.699219 149.296875 L 226.691406 119.261719 L 184.304688 134.808594 L 183.320312 134.597656 L 183.3125 134.644531 Z M 131.066406 182.851562 L 131.8125 183.871094 L 132.496094 183.207031 L 131.125 182.550781 Z M 242.351562 149.25 L 243.027344 150.601562 L 263.011719 196.96875 L 277.929688 148.066406 L 244.207031 151.097656 L 267.796875 117.285156 L 258.359375 108.542969 L 257.855469 106.820312 L 257.179688 107.34375 L 257.058594 107.332031 L 219.417969 103.359375 L 226.988281 118.507812 L 255.964844 107.875 Z M 263.386719 197.832031 L 264.492188 200.398438 L 334.757812 186.261719 L 301.570312 145.941406 L 300.390625 146.046875 L 300.390625 147.488281 L 298.972656 146.175781 L 278.578125 148.007812 Z M 23.996094 140.847656 L 30.003906 220.453125 L 74.144531 216.972656 L 78.925781 160.1875 L 79.527344 160.238281 L 74.777344 216.6875 L 130.375 183.226562 L 130.5625 182.28125 L 81.105469 158.605469 L 112.363281 150.960938 L 96.054688 123.394531 L 79.945312 127.015625 L 80.957031 159.121094 Z M 157.140625 160.09375 L 210.425781 220.996094 L 203.683594 183.246094 L 261.976562 200.367188 L 262.738281 197.867188 L 242.480469 150.859375 L 242.085938 150.066406 L 241.808594 150.910156 L 241.75 150.960938 L 206.226562 183.722656 L 182.386719 135.542969 Z M 211.199219 221.878906 L 211.480469 222.199219 L 263.910156 200.582031 L 263.109375 198.726562 L 262.378906 201.117188 L 204.453125 184.105469 Z M 132.289062 184.253906 L 210.980469 224.085938 L 210.632812 222.152344 L 156.707031 160.515625 L 133.515625 183.066406 L 133.636719 183.753906 L 133.078125 183.488281 Z M 132.761719 185.175781 L 161.644531 224.699219 L 119.015625 254.828125 L 211.371094 225.480469 L 211.457031 225.5 L 289.492188 243.972656 L 264.179688 201.125 L 211.382812 222.894531 L 211.789062 225.175781 L 211.246094 224.902344 Z M 130.90625 183.664062 L 116.78125 255.535156 L 117.105469 255.433594 L 160.792969 224.5625 L 131.570312 184.570312 L 131.257812 184.414062 L 131.375 184.300781 Z M 74.921875 217.3125 L 115.246094 256.023438 L 116.121094 255.746094 L 130.214844 184.03125 Z M 115.863281 257.050781 L 115.988281 256.425781 L 115.085938 256.710938 L 114.957031 256.585938 L 74.316406 217.566406 L 29.445312 221.109375 L 23.371094 140.652344 L 20.566406 139.75 L 23.257812 139.144531 L 23.089844 136.90625 L 78.109375 93.066406 L 78.082031 93.015625 L 77.472656 93.355469 L 77.179688 92.824219 L 77.773438 92.492188 L 77.464844 91.96875 L 78.546875 91.964844 L 89.539062 49.734375 L 88.300781 49.636719 L 88.207031 49.058594 L 89.265625 48.613281 L 88.566406 48.367188 L 90.949219 47.90625 L 157.828125 19.828125 L 157.625 20.15625 L 226.867188 21.179688 L 228.90625 19.535156 L 228.949219 19.140625 L 229.183594 19.3125 L 229.320312 19.203125 L 229.441406 19.5 L 300.503906 71.457031 L 299.320312 73.15625 L 299.953125 73.3125 L 301.800781 71.878906 L 300.390625 76.5 L 300.390625 145.441406 L 301.835938 145.308594 L 301.9375 145.433594 L 335.867188 186.660156 L 264.789062 200.957031 L 290.738281 244.894531 L 211.394531 226.109375 L 117.378906 255.984375 L 115.863281 257.050781 "/>
<path style=" stroke:none;fill-rule:nonzero;fill:rgb(100%,100%,100%);fill-opacity:1;" d="M 256.84375 219.605469 L 289.867188 242.804688 L 299.664062 147.945312 L 263.1875 200.878906 Z M 22.691406 141.753906 L 72.132812 289.261719 L 75.613281 218.773438 Z M 115.230469 257.8125 L 73.476562 290.386719 L 171.953125 274.234375 Z M 72.019531 291.527344 L 72.050781 290.921875 L 21.429688 139.898438 L 21.96875 139.628906 L 76.226562 218.597656 L 72.691406 290.234375 L 115.101562 257.140625 L 115.253906 257.1875 L 173.210938 273.96875 L 211.394531 224.117188 L 240.59375 265.691406 L 256.125 219.839844 L 204.566406 183.617188 L 160.855469 225.398438 L 171.351562 93.066406 L 171.960938 93.113281 L 161.585938 223.863281 L 204.507812 182.835938 L 256.328125 219.242188 L 262.664062 200.570312 L 299.835938 146.625 L 300.390625 146.824219 L 290.367188 243.894531 L 256.640625 220.203125 L 240.78125 267.019531 L 211.371094 225.144531 L 173.441406 274.667969 L 173.304688 274.625 L 72.484375 291.167969 L 72.019531 291.527344 "/>
<path style=" stroke:none;fill-rule:nonzero;fill:rgb(100%,100%,100%);fill-opacity:1;" d="M 215.597656 317.109375 L 173.316406 274.738281 L 136.144531 309.082031 L 116.023438 256.476562 L 116.589844 256.257812 L 136.390625 308.027344 L 173.332031 273.898438 L 173.539062 274.101562 L 215.453125 316.105469 L 242.34375 266.484375 L 161.132812 224.929688 L 74.398438 216.816406 L 74.457031 216.210938 L 161.308594 224.332031 L 161.359375 224.363281 L 243.171875 266.226562 L 215.597656 317.109375 "/>
<path style=" stroke:none;fill-rule:nonzero;fill:rgb(100%,100%,100%);fill-opacity:1;" d="M 135.34375 306.859375 L 29.535156 222.800781 L 29.839844 222.277344 L 113.832031 256.070312 L 242.703125 266.046875 L 292.058594 243.078125 L 292.316406 243.625 L 242.8125 266.664062 L 242.734375 266.65625 L 113.695312 256.664062 L 113.652344 256.648438 L 31.546875 223.617188 L 135.71875 306.386719 L 135.34375 306.859375 "/>
<path style=" stroke:none;fill-rule:nonzero;fill:rgb(100%,100%,100%);fill-opacity:1;" d="M 136.378906 309.625 L 136.15625 309.058594 L 242.351562 267.03125 L 204.261719 181.753906 L 204.8125 181.503906 L 243.164062 267.363281 L 136.378906 309.625 "/>
<path style=" stroke:none;fill-rule:nonzero;fill:rgb(100%,100%,100%);fill-opacity:1;" d="M 144.144531 160.773438 C 144.144531 163.976562 141.546875 166.574219 138.339844 166.574219 C 135.136719 166.574219 132.539062 163.976562 132.539062 160.773438 C 132.539062 157.566406 135.136719 154.96875 138.339844 154.96875 C 141.546875 154.96875 144.144531 157.566406 144.144531 160.773438 "/>
<path style=" stroke:none;fill-rule:nonzero;fill:rgb(100%,100%,100%);fill-opacity:1;" d="M 246.488281 93.089844 C 246.488281 96.292969 243.890625 98.890625 240.6875 98.890625 C 237.480469 98.890625 234.882812 96.292969 234.882812 93.089844 C 234.882812 89.882812 237.480469 87.285156 240.6875 87.285156 C 243.890625 87.285156 246.488281 89.882812 246.488281 93.089844 "/>
<path style=" stroke:none;fill-rule:nonzero;fill:rgb(100%,100%,100%);fill-opacity:1;" d="M 75.605469 138.097656 C 75.605469 139.890625 74.148438 141.34375 72.355469 141.34375 C 70.5625 141.34375 69.105469 139.890625 69.105469 138.097656 C 69.105469 136.304688 70.5625 134.851562 72.355469 134.851562 C 74.148438 134.851562 75.605469 136.304688 75.605469 138.097656 "/>
<path style=" stroke:none;fill-rule:nonzero;fill:rgb(100%,100%,100%);fill-opacity:1;" d="M 159.839844 80.554688 C 159.839844 84.886719 156.328125 88.402344 151.996094 88.402344 C 147.65625 88.402344 144.144531 84.886719 144.144531 80.554688 C 144.144531 76.21875 147.65625 72.703125 151.996094 72.703125 C 156.328125 72.703125 159.839844 76.21875 159.839844 80.554688 "/>
<path style=" stroke:none;fill-rule:nonzero;fill:rgb(100%,100%,100%);fill-opacity:1;" d="M 237.042969 215.183594 C 237.042969 219.515625 233.527344 223.03125 229.195312 223.03125 C 224.855469 223.03125 221.34375 219.515625 221.34375 215.183594 C 221.34375 210.847656 224.855469 207.335938 229.195312 207.335938 C 233.527344 207.335938 237.042969 210.847656 237.042969 215.183594 "/>
<path style=" stroke:none;fill-rule:nonzero;fill:rgb(100%,100%,100%);fill-opacity:1;" d="M 83.453125 241.277344 C 83.453125 245.613281 79.9375 249.128906 75.605469 249.128906 C 71.269531 249.128906 67.753906 245.613281 67.753906 241.277344 C 67.753906 236.945312 71.269531 233.429688 75.605469 233.429688 C 79.9375 233.429688 83.453125 236.945312 83.453125 241.277344 "/>
<path style=" stroke:none;fill-rule:nonzero;fill:rgb(100%,100%,100%);fill-opacity:1;" d="M 56.128906 80.554688 C 56.128906 83.757812 53.53125 86.355469 50.328125 86.355469 C 47.121094 86.355469 44.523438 83.757812 44.523438 80.554688 C 44.523438 77.347656 47.121094 74.75 50.328125 74.75 C 53.53125 74.75 56.128906 77.347656 56.128906 80.554688 "/>
<path style=" stroke:none;fill-rule:nonzero;fill:rgb(100%,100%,100%);fill-opacity:1;" d="M 169.09375 259.601562 C 169.09375 262.808594 166.496094 265.40625 163.292969 265.40625 C 160.085938 265.40625 157.488281 262.808594 157.488281 259.601562 C 157.488281 256.398438 160.085938 253.800781 163.292969 253.800781 C 166.496094 253.800781 169.09375 256.398438 169.09375 259.601562 "/>
<g clip-path="url(#clip1)" clip-rule="nonzero">
<path style=" stroke:none;fill-rule:nonzero;fill:rgb(100%,100%,100%);fill-opacity:1;" d="M 193.785156 13.136719 C 193.785156 16.339844 191.1875 18.9375 187.984375 18.9375 C 184.777344 18.9375 182.179688 16.339844 182.179688 13.136719 C 182.179688 9.929688 184.777344 7.332031 187.984375 7.332031 C 191.1875 7.332031 193.785156 9.929688 193.785156 13.136719 "/>
</g>
<path style=" stroke:none;fill-rule:nonzero;fill:rgb(100%,100%,100%);fill-opacity:1;" d="M 130.675781 353.015625 C 130.675781 356.222656 128.078125 358.820312 124.875 358.820312 C 121.667969 358.820312 119.070312 356.222656 119.070312 353.015625 C 119.070312 349.808594 121.667969 347.210938 124.875 347.210938 C 128.078125 347.210938 130.675781 349.808594 130.675781 353.015625 "/>
<path style=" stroke:none;fill-rule:nonzero;fill:rgb(100%,100%,100%);fill-opacity:1;" d="M 283.339844 148.214844 C 283.339844 151.066406 281.023438 153.382812 278.171875 153.382812 C 275.316406 153.382812 273.003906 151.066406 273.003906 148.214844 C 273.003906 145.359375 275.316406 143.046875 278.171875 143.046875 C 281.023438 143.046875 283.339844 145.359375 283.339844 148.214844 "/>
<path style=" stroke:none;fill-rule:nonzero;fill:rgb(100%,100%,100%);fill-opacity:1;" d="M 274.289062 300.679688 C 274.289062 303.886719 271.691406 306.484375 268.484375 306.484375 C 265.28125 306.484375 262.679688 303.886719 262.679688 300.679688 C 262.679688 297.476562 265.28125 294.878906 268.484375 294.878906 C 271.691406 294.878906 274.289062 297.476562 274.289062 300.679688 "/>
<path style=" stroke:none;fill-rule:nonzero;fill:rgb(100%,100%,100%);fill-opacity:1;" d="M 128.121094 220.5 C 128.121094 222.292969 126.667969 223.75 124.875 223.75 C 123.082031 223.75 121.625 222.292969 121.625 220.5 C 121.625 218.707031 123.082031 217.253906 124.875 217.253906 C 126.667969 217.253906 128.121094 218.707031 128.121094 220.5 "/>
<path style=" stroke:none;fill-rule:nonzero;fill:rgb(100%,100%,100%);fill-opacity:1;" d="M 59.378906 203.332031 C 59.378906 205.125 57.921875 206.578125 56.128906 206.578125 C 54.335938 206.578125 52.882812 205.125 52.882812 203.332031 C 52.882812 201.539062 54.335938 200.082031 56.128906 200.082031 C 57.921875 200.082031 59.378906 201.539062 59.378906 203.332031 "/>
<g clip-path="url(#clip2)" clip-rule="nonzero">
<path style=" stroke:none;fill-rule:nonzero;fill:rgb(100%,100%,100%);fill-opacity:1;" d="M 15.082031 174.574219 C 15.082031 176.367188 13.628906 177.820312 11.835938 177.820312 C 10.042969 177.820312 8.585938 176.367188 8.585938 174.574219 C 8.585938 172.78125 10.042969 171.328125 11.835938 171.328125 C 13.628906 171.328125 15.082031 172.78125 15.082031 174.574219 "/>
</g>
<path style=" stroke:none;fill-rule:nonzero;fill:rgb(100%,100%,100%);fill-opacity:1;" d="M 111.929688 31.859375 C 111.929688 33.652344 110.476562 35.105469 108.683594 35.105469 C 106.890625 35.105469 105.4375 33.652344 105.4375 31.859375 C 105.4375 30.0625 106.890625 28.609375 108.683594 28.609375 C 110.476562 28.609375 111.929688 30.0625 111.929688 31.859375 "/>
<path style=" stroke:none;fill-rule:nonzero;fill:rgb(100%,100%,100%);fill-opacity:1;" d="M 39.453125 279.636719 C 39.453125 281.429688 38 282.882812 36.207031 282.882812 C 34.414062 282.882812 32.960938 281.429688 32.960938 279.636719 C 32.960938 277.84375 34.414062 276.390625 36.207031 276.390625 C 38 276.390625 39.453125 277.84375 39.453125 279.636719 "/>
<path style=" stroke:none;fill-rule:nonzero;fill:rgb(100%,100%,100%);fill-opacity:1;" d="M 172.34375 129.867188 C 172.34375 131.660156 170.886719 133.117188 169.09375 133.117188 C 167.300781 133.117188 165.847656 131.660156 165.847656 129.867188 C 165.847656 128.074219 167.300781 126.621094 169.09375 126.621094 C 170.886719 126.621094 172.34375 128.074219 172.34375 129.867188 "/>
<path style=" stroke:none;fill-rule:nonzero;fill:rgb(100%,100%,100%);fill-opacity:1;" d="M 182.226562 206.582031 C 182.226562 208.375 180.769531 209.828125 178.976562 209.828125 C 177.183594 209.828125 175.726562 208.375 175.726562 206.582031 C 175.726562 204.785156 177.183594 203.332031 178.976562 203.332031 C 180.769531 203.332031 182.226562 204.785156 182.226562 206.582031 "/>
<path style=" stroke:none;fill-rule:nonzero;fill:rgb(100%,100%,100%);fill-opacity:1;" d="M 228.179688 59.28125 C 228.179688 61.078125 226.726562 62.53125 224.933594 62.53125 C 223.136719 62.53125 221.683594 61.078125 221.683594 59.28125 C 221.683594 57.488281 223.136719 56.035156 224.933594 56.035156 C 226.726562 56.035156 228.179688 57.488281 228.179688 59.28125 "/>
<path style=" stroke:none;fill-rule:nonzero;fill:rgb(100%,100%,100%);fill-opacity:1;" d="M 105.4375 310.628906 C 105.4375 312.421875 103.984375 313.875 102.191406 313.875 C 100.394531 313.875 98.941406 312.421875 98.941406 310.628906 C 98.941406 308.832031 100.394531 307.378906 102.191406 307.378906 C 103.984375 307.378906 105.4375 308.832031 105.4375 310.628906 "/>
<path style=" stroke:none;fill-rule:nonzero;fill:rgb(100%,100%,100%);fill-opacity:1;" d="M 185.425781 318.679688 C 185.425781 320.472656 183.972656 321.921875 182.179688 321.921875 C 180.386719 321.921875 178.933594 320.472656 178.933594 318.679688 C 178.933594 316.882812 180.386719 315.429688 182.179688 315.429688 C 183.972656 315.429688 185.425781 316.882812 185.425781 318.679688 "/>
<path style=" stroke:none;fill-rule:nonzero;fill:rgb(100%,100%,100%);fill-opacity:1;" d="M 235.03125 353.015625 C 235.03125 354.808594 233.574219 356.261719 231.78125 356.261719 C 229.988281 356.261719 228.535156 354.808594 228.535156 353.015625 C 228.535156 351.222656 229.988281 349.765625 231.78125 349.765625 C 233.574219 349.765625 235.03125 351.222656 235.03125 353.015625 "/>
<path style=" stroke:none;fill-rule:nonzero;fill:rgb(100%,100%,100%);fill-opacity:1;" d="M 229.449219 274.316406 C 229.449219 276.8125 227.425781 278.835938 224.933594 278.835938 C 222.4375 278.835938 220.414062 276.8125 220.414062 274.316406 C 220.414062 271.820312 222.4375 269.800781 224.933594 269.800781 C 227.425781 269.800781 229.449219 271.820312 229.449219 274.316406 "/>
<path style=" stroke:none;fill-rule:nonzero;fill:rgb(100%,100%,100%);fill-opacity:1;" d="M 286.585938 217.253906 C 286.585938 219.046875 285.132812 220.5 283.339844 220.5 C 281.546875 220.5 280.089844 219.046875 280.089844 217.253906 C 280.089844 215.457031 281.546875 214.007812 283.339844 214.007812 C 285.132812 214.007812 286.585938 215.457031 286.585938 217.253906 "/>
<path style=" stroke:none;fill-rule:nonzero;fill:rgb(100%,100%,100%);fill-opacity:1;" d="M 224.929688 145.625 C 224.929688 147.417969 223.476562 148.871094 221.683594 148.871094 C 219.890625 148.871094 218.4375 147.417969 218.4375 145.625 C 218.4375 143.832031 219.890625 142.378906 221.683594 142.378906 C 223.476562 142.378906 224.929688 143.832031 224.929688 145.625 "/>
<path style=" stroke:none;fill-rule:nonzero;fill:rgb(100%,100%,100%);fill-opacity:1;" d="M 295.433594 47.664062 C 295.433594 49.457031 293.984375 50.910156 292.1875 50.910156 C 290.394531 50.910156 288.941406 49.457031 288.941406 47.664062 C 288.941406 45.867188 290.394531 44.414062 292.1875 44.414062 C 293.984375 44.414062 295.433594 45.867188 295.433594 47.664062 "/>
<path style=" stroke:none;fill-rule:nonzero;fill:rgb(100%,100%,100%);fill-opacity:1;" d="M 318.128906 268.941406 C 318.128906 270.734375 316.675781 272.191406 314.878906 272.191406 C 313.085938 272.191406 311.636719 270.734375 311.636719 268.941406 C 311.636719 267.148438 313.085938 265.695312 314.878906 265.695312 C 316.675781 265.695312 318.128906 267.148438 318.128906 268.941406 "/>
<path style=" stroke:none;fill-rule:nonzero;fill:rgb(100%,100%,100%);fill-opacity:1;" d="M 360.929688 233.429688 C 360.929688 235.226562 359.472656 236.675781 357.679688 236.675781 C 355.886719 236.675781 354.433594 235.226562 354.433594 233.429688 C 354.433594 231.636719 355.886719 230.183594 357.679688 230.183594 C 359.472656 230.183594 360.929688 231.636719 360.929688 233.429688 "/>
<path style=" stroke:none;fill-rule:nonzero;fill:rgb(100%,100%,100%);fill-opacity:1;" d="M 314.882812 315.429688 C 314.882812 317.222656 313.429688 318.679688 311.636719 318.679688 C 309.839844 318.679688 308.386719 317.222656 308.386719 315.429688 C 308.386719 313.636719 309.839844 312.179688 311.636719 312.179688 C 313.429688 312.179688 314.882812 313.636719 314.882812 315.429688 "/>
<path style=" stroke:none;fill-rule:nonzero;fill:rgb(100%,100%,100%);fill-opacity:1;" d="M 330.429688 177.820312 C 330.429688 179.613281 328.972656 181.070312 327.179688 181.070312 C 325.386719 181.070312 323.933594 179.613281 323.933594 177.820312 C 323.933594 176.027344 325.386719 174.574219 327.179688 174.574219 C 328.972656 174.574219 330.429688 176.027344 330.429688 177.820312 "/>
<path style=" stroke:none;fill-rule:nonzero;fill:rgb(100%,100%,100%);fill-opacity:1;" d="M 360.929688 143.039062 C 360.929688 144.832031 359.472656 146.285156 357.679688 146.285156 C 355.886719 146.285156 354.433594 144.832031 354.433594 143.039062 C 354.433594 141.242188 355.886719 139.789062 357.679688 139.789062 C 359.472656 139.789062 360.929688 141.242188 360.929688 143.039062 "/>
<path style=" stroke:none;fill-rule:nonzero;fill:rgb(100%,100%,100%);fill-opacity:1;" d="M 327.179688 105.140625 C 327.179688 106.933594 325.726562 108.390625 323.933594 108.390625 C 322.136719 108.390625 320.6875 106.933594 320.6875 105.140625 C 320.6875 103.347656 322.136719 101.894531 323.933594 101.894531 C 325.726562 101.894531 327.179688 103.347656 327.179688 105.140625 "/>
<path style=" stroke:none;fill-rule:nonzero;fill:rgb(100%,100%,100%);fill-opacity:1;" d="M 138.5625 160.980469 L 138.121094 160.5625 L 168.960938 127.90625 L 169.402344 128.320312 L 138.5625 160.980469 "/>
<path style=" stroke:none;fill-rule:nonzero;fill:rgb(100%,100%,100%);fill-opacity:1;" d="M 11.984375 171.589844 L 11.6875 171.0625 L 73.832031 136.300781 L 74.128906 136.828125 L 11.984375 171.589844 "/>
<path style=" stroke:none;fill-rule:nonzero;fill:rgb(100%,100%,100%);fill-opacity:1;" d="M 72.585938 137.859375 L 137.058594 159.625 L 51.0625 81.632812 Z M 138.246094 160.664062 L 72.125 138.34375 L 72.074219 138.210938 L 50.042969 80.664062 L 50.53125 80.328125 L 138.546875 160.152344 L 138.246094 160.664062 "/>
<path style=" stroke:none;fill-rule:nonzero;fill:rgb(100%,100%,100%);fill-opacity:1;" d="M 35.914062 276.460938 L 11.363281 173.90625 L 55.796875 202.753906 L 50.007812 80.242188 L 50.332031 80.25 L 148.773438 82.28125 L 148.761719 82.886719 L 50.644531 80.863281 L 56.457031 203.910156 L 12.304688 175.242188 L 36.503906 276.316406 L 35.914062 276.460938 "/>
<path style=" stroke:none;fill-rule:nonzero;fill:rgb(100%,100%,100%);fill-opacity:1;" d="M 122.832031 353.363281 L 122.695312 353.246094 L 35.773438 279.667969 L 72.128906 239.179688 L 72.582031 239.585938 L 36.640625 279.605469 L 122.953125 352.671875 L 267.902344 299.367188 L 268.113281 299.9375 L 122.832031 353.363281 "/>
<path style=" stroke:none;fill-rule:nonzero;fill:rgb(100%,100%,100%);fill-opacity:1;" d="M 102.378906 308.792969 L 101.996094 308.320312 L 161.027344 260.109375 L 161.410156 260.582031 L 102.378906 308.792969 "/>
<path style=" stroke:none;fill-rule:nonzero;fill:rgb(100%,100%,100%);fill-opacity:1;" d="M 225.207031 274.695312 L 163.222656 259.894531 L 75.542969 241.574219 L 75.664062 240.984375 L 163.355469 259.304688 L 224.65625 273.941406 L 228.890625 215.160156 L 229.496094 215.207031 L 225.207031 274.695312 "/>
<path style=" stroke:none;fill-rule:nonzero;fill:rgb(100%,100%,100%);fill-opacity:1;" d="M 162.996094 259.671875 L 139.875 160.839844 L 140.464844 160.703125 L 163.585938 259.535156 L 162.996094 259.671875 "/>
<path style=" stroke:none;fill-rule:nonzero;fill:rgb(100%,100%,100%);fill-opacity:1;" d="M 283.65625 217.574219 L 228.917969 214.292969 L 228.890625 214.039062 L 221.382812 144.476562 L 221.984375 144.410156 L 229.464844 213.71875 L 283.019531 216.933594 L 279.789062 148.886719 L 280.394531 148.859375 L 283.65625 217.574219 "/>
<path style=" stroke:none;fill-rule:nonzero;fill:rgb(100%,100%,100%);fill-opacity:1;" d="M 124.765625 353.433594 L 101.925781 314.027344 L 102.449219 313.722656 L 124.984375 352.597656 L 182.183594 318.320312 L 182.339844 318.421875 L 231.941406 349.511719 L 231.621094 350.023438 L 182.175781 319.035156 L 124.765625 353.433594 "/>
<path style=" stroke:none;fill-rule:nonzero;fill:rgb(100%,100%,100%);fill-opacity:1;" d="M 182.195312 318.984375 L 182.148438 318.980469 L 101.769531 309.925781 L 101.835938 309.320312 L 182.164062 318.371094 L 268.050781 300.464844 L 229.171875 216.339844 L 229.726562 216.082031 L 268.921875 300.898438 L 268.546875 300.976562 L 182.195312 318.984375 "/>
<path style=" stroke:none;fill-rule:nonzero;fill:rgb(100%,100%,100%);fill-opacity:1;" d="M 139.167969 160.527344 L 229.363281 215.808594 L 277.878906 148.097656 L 291.828125 48.03125 L 225.222656 59.539062 L 221.976562 144.695312 Z M 72.691406 139.191406 L 75.878906 240.410156 L 109.101562 196.320312 Z M 109.449219 196.867188 L 76.523438 240.5625 L 124.421875 220.363281 Z M 75.328125 242.148438 L 72.019531 137.003906 L 109.492188 195.804688 L 136.097656 160.496094 L 136.210938 160.472656 L 221.390625 144.1875 L 224.636719 59.023438 L 292.542969 47.292969 L 278.460938 148.328125 L 278.417969 148.390625 L 229.53125 216.621094 L 229.289062 216.472656 L 139.976562 161.734375 L 179.535156 205.511719 L 124.949219 219.617188 L 124.796875 219.03125 L 178.414062 205.175781 L 138.230469 160.707031 L 136.441406 161.050781 L 109.839844 196.347656 L 125.320312 220.640625 L 124.988281 220.78125 L 75.796875 241.523438 L 75.328125 242.148438 "/>
<path style=" stroke:none;fill-rule:nonzero;fill:rgb(100%,100%,100%);fill-opacity:1;" d="M 231.933594 353.320312 L 127.726562 353.320312 L 127.726562 352.714844 L 231.625 352.714844 L 269.746094 300.5 L 270.234375 300.863281 L 231.933594 353.320312 "/>
<path style=" stroke:none;fill-rule:nonzero;fill:rgb(100%,100%,100%);fill-opacity:1;" d="M 312.140625 314.558594 L 311.535156 314.515625 L 314.539062 269.546875 L 268.65625 300.933594 L 268.3125 300.429688 L 315.226562 268.339844 L 312.140625 314.558594 "/>
<path style=" stroke:none;fill-rule:nonzero;fill:rgb(100%,100%,100%);fill-opacity:1;" d="M 314.71875 269.199219 L 229.027344 214.261719 L 229.355469 213.75 L 313.9375 267.976562 L 282.710938 216.808594 L 283.402344 216.957031 L 358.617188 233.132812 L 358.488281 233.726562 L 283.964844 217.699219 L 315.140625 268.785156 L 314.71875 269.199219 "/>
<path style=" stroke:none;fill-rule:nonzero;fill:rgb(100%,100%,100%);fill-opacity:1;" d="M 182.207031 319.070312 L 182.003906 318.921875 L 76.253906 242.125 L 102.742188 311.222656 L 102.058594 310.898438 L 35.851562 279.800781 L 35.914062 279.558594 L 55.910156 202.964844 L 56.203125 203.039062 L 124.945312 220.207031 L 124.800781 220.796875 L 56.347656 203.699219 L 36.566406 279.46875 L 101.636719 310.03125 L 74.957031 240.433594 L 182.152344 318.28125 L 225.046875 276.347656 L 178.722656 206.75 L 179.226562 206.414062 L 225.828125 276.429688 L 182.207031 319.070312 "/>
<path style=" stroke:none;fill-rule:nonzero;fill:rgb(100%,100%,100%);fill-opacity:1;" d="M 149.03125 80.707031 L 148.507812 80.402344 L 187.367188 13.59375 L 108.753906 32.152344 L 108.613281 31.5625 L 188.597656 12.679688 L 149.03125 80.707031 "/>
<path style=" stroke:none;fill-rule:nonzero;fill:rgb(100%,100%,100%);fill-opacity:1;" d="M 188.859375 13.746094 L 225.191406 59.121094 L 225.207031 59.152344 L 240.789062 92.59375 L 291.589844 47.785156 Z M 221.722656 145.914062 L 168.859375 130.113281 L 168.808594 129.96875 L 151.542969 80.183594 L 240.175781 92.710938 L 224.671875 59.441406 L 187.105469 12.523438 L 292.785156 47.539062 L 241.054688 93.167969 L 241.199219 93.46875 L 152.441406 80.921875 L 169.328125 129.621094 L 221.898438 145.335938 L 221.722656 145.914062 "/>
<path style=" stroke:none;fill-rule:nonzero;fill:rgb(100%,100%,100%);fill-opacity:1;" d="M 152.488281 82.011719 L 152.308594 81.433594 L 223.902344 58.992188 L 224.085938 59.570312 L 152.488281 82.011719 "/>
<path style=" stroke:none;fill-rule:nonzero;fill:rgb(100%,100%,100%);fill-opacity:1;" d="M 229.199219 216.382812 L 168.898438 130.113281 L 50.65625 82.003906 L 50.886719 81.441406 L 169.292969 129.621094 L 169.34375 129.695312 L 229.695312 216.039062 L 229.199219 216.382812 "/>
<path style=" stroke:none;fill-rule:nonzero;fill:rgb(100%,100%,100%);fill-opacity:1;" d="M 140.472656 160.417969 L 139.871094 160.332031 L 151.695312 80.507812 L 152.292969 80.597656 L 140.472656 160.417969 "/>
<path style=" stroke:none;fill-rule:nonzero;fill:rgb(100%,100%,100%);fill-opacity:1;" d="M 222.234375 145.339844 L 277.578125 147.882812 L 240.773438 93.75 Z M 222.503906 145.960938 L 283.367188 215.78125 L 326.667969 177.867188 L 278.082031 148.515625 Z M 283.308594 216.640625 L 283.109375 216.410156 L 221.839844 146.121094 L 181.210938 205.515625 L 180.710938 205.171875 L 221.425781 145.648438 L 221.117188 145.289062 L 221.601562 145.3125 L 240.601562 92.425781 L 278.21875 147.742188 L 323.71875 102.855469 L 324.148438 103.289062 L 278.664062 148.15625 L 327.691406 177.777344 L 283.308594 216.640625 "/>
<path style=" stroke:none;fill-rule:nonzero;fill:rgb(100%,100%,100%);fill-opacity:1;" d="M 311.898438 315.578125 L 311.371094 315.28125 L 356.65625 234.636719 L 315.273438 267.683594 L 314.894531 267.207031 L 357.492188 233.191406 L 357.945312 233.578125 L 311.898438 315.578125 "/>
<path style=" stroke:none;fill-rule:nonzero;fill:rgb(100%,100%,100%);fill-opacity:1;" d="M 278.191406 148.515625 L 278.152344 147.910156 L 357.664062 142.734375 L 357.699219 143.339844 L 278.191406 148.515625 "/>
<path style=" stroke:none;fill-rule:nonzero;fill:rgb(100%,100%,100%);fill-opacity:1;" d="M 225.433594 273.863281 L 267.980469 298.15625 L 282.867188 218.136719 Z M 231.800781 353.339844 L 231.6875 353.304688 L 101.828125 310.828125 L 101.894531 310.554688 L 137.890625 160.953125 L 56.542969 203.460938 L 76.765625 241.136719 L 76.230469 241.421875 L 55.71875 203.207031 L 138.792969 159.796875 L 102.550781 310.425781 L 231.761719 352.6875 L 310.84375 315.464844 L 267.664062 299.851562 L 267.863281 298.785156 L 224.429688 273.988281 L 224.71875 273.710938 L 283.808594 216.371094 L 268.535156 298.472656 L 270.140625 299.386719 L 269.839844 299.917969 L 268.421875 299.105469 L 268.355469 299.453125 L 312.425781 315.394531 L 231.800781 353.339844 "/>
<path style=" stroke:none;fill-rule:nonzero;fill:rgb(100%,100%,100%);fill-opacity:1;" d="M 163.460938 260.757812 L 163.125 260.253906 L 228.402344 216.546875 L 124.882812 219.628906 L 124.863281 219.019531 L 230.492188 215.878906 L 163.460938 260.757812 "/>
<path style=" stroke:none;fill-rule:nonzero;fill:rgb(100%,100%,100%);fill-opacity:1;" d="M 327.480469 177.738281 L 357.378906 232.246094 L 357.378906 143.152344 L 324.273438 105.980469 Z M 357.417969 233.574219 L 326.878906 177.90625 L 326.878906 177.835938 L 323.640625 105.40625 L 240.738281 93.402344 L 169.234375 130.136719 L 168.957031 129.597656 L 240.632812 92.777344 L 323.371094 104.753906 L 291.921875 47.808594 L 292.398438 47.445312 L 327.390625 81.507812 L 326.96875 81.9375 L 293.441406 49.308594 L 324.125 104.863281 L 324.226562 104.878906 L 324.230469 105.023438 L 357.984375 142.921875 L 357.984375 233.429688 L 357.417969 233.574219 "/>
<path style=" stroke:none;fill-rule:nonzero;fill:rgb(100%,100%,100%);fill-opacity:1;" d="M 232.179688 354.085938 L 231.535156 353.195312 L 164.394531 259.78125 L 164.886719 259.425781 L 231.382812 351.941406 L 224.628906 273.953125 L 225.234375 273.902344 L 232.179688 354.085938 "/>
<path style=" stroke:none;fill-rule:nonzero;fill:rgb(100%,100%,100%);fill-opacity:1;" d="M 139.253906 66.683594 L 74.683594 136.039062 L 151.542969 80.503906 Z M 74.878906 241.679688 L 11.480469 174.640625 L 50.074219 80.367188 L 50.132812 80.320312 L 108.714844 31.4375 L 108.910156 31.660156 L 139.261719 65.785156 L 186.578125 14.960938 L 187.023438 15.375 L 139.667969 66.238281 L 152.441406 80.605469 L 152.167969 80.800781 L 72.535156 138.34375 L 72.132812 137.890625 L 138.847656 66.230469 L 108.652344 32.277344 L 50.578125 80.738281 L 12.191406 174.507812 L 75.316406 241.265625 L 74.878906 241.679688 "/>
<path style=" stroke:none;fill-rule:nonzero;fill:rgb(100%,100%,100%);fill-opacity:1;" d="M 327.410156 178.023438 L 326.953125 177.621094 L 357.453125 142.835938 L 357.910156 143.238281 L 327.410156 178.023438 "/>
<path style=" stroke:none;fill-rule:nonzero;fill:rgb(100%,100%,100%);fill-opacity:1;" d="M 358.175781 234.113281 L 357.515625 233.683594 L 221.175781 144.695312 L 221.507812 144.1875 L 357.1875 232.746094 L 323.667969 105.328125 L 187.8125 13.386719 L 188.046875 12.839844 L 248.421875 25.964844 L 248.292969 26.554688 L 189.457031 13.765625 L 324.195312 104.957031 L 324.226562 105.0625 L 358.175781 234.113281 "/>
<path style=" stroke:none;fill-rule:nonzero;fill:rgb(7.058716%,7.058716%,7.058716%);fill-opacity:1;" d="M 328.640625 81.722656 C 328.640625 82.527344 327.988281 83.179688 327.179688 83.179688 C 326.375 83.179688 325.722656 82.527344 325.722656 81.722656 C 325.722656 80.917969 326.375 80.261719 327.179688 80.261719 C 327.988281 80.261719 328.640625 80.917969 328.640625 81.722656 "/>
<path style=" stroke:none;fill-rule:nonzero;fill:rgb(100%,100%,100%);fill-opacity:1;" d="M 326.023438 105.160156 L 325.417969 105.125 L 326.878906 80.246094 L 327.484375 80.277344 L 326.023438 105.160156 "/>
<g clip-path="url(#clip3)" clip-rule="nonzero">
<path style=" stroke:none;fill-rule:nonzero;fill:rgb(100%,100%,100%);fill-opacity:1;" d="M 189.886719 365.433594 C 189.886719 366.488281 189.035156 367.339844 187.984375 367.339844 C 186.929688 367.339844 186.078125 366.488281 186.078125 365.433594 C 186.078125 364.382812 186.929688 363.527344 187.984375 363.527344 C 189.035156 363.527344 189.886719 364.382812 189.886719 365.433594 "/>
</g>
<path style=" stroke:none;fill-rule:nonzero;fill:rgb(100%,100%,100%);fill-opacity:1;" d="M 72.1875 320.582031 C 72.1875 321.632812 71.335938 322.488281 70.285156 322.488281 C 69.234375 322.488281 68.378906 321.632812 68.378906 320.582031 C 68.378906 319.53125 69.234375 318.679688 70.285156 318.679688 C 71.335938 318.679688 72.1875 319.53125 72.1875 320.582031 "/>
<path style=" stroke:none;fill-rule:nonzero;fill:rgb(100%,100%,100%);fill-opacity:1;" d="M 271.894531 345.308594 C 271.894531 346.359375 271.042969 347.214844 269.988281 347.214844 C 268.9375 347.214844 268.085938 346.359375 268.085938 345.308594 C 268.085938 344.253906 268.9375 343.402344 269.988281 343.402344 C 271.042969 343.402344 271.894531 344.253906 271.894531 345.308594 "/>
<path style=" stroke:none;fill-rule:nonzero;fill:rgb(100%,100%,100%);fill-opacity:1;" d="M 70.546875 321.371094 L 35.976562 279.832031 L 36.441406 279.441406 L 70.023438 319.792969 L 74.125 242.761719 L 74.730469 242.792969 L 70.546875 321.371094 "/>
<path style=" stroke:none;fill-rule:nonzero;fill:rgb(100%,100%,100%);fill-opacity:1;" d="M 187.996094 365.746094 L 187.921875 365.730469 L 124.8125 353.3125 L 124.933594 352.71875 L 187.972656 365.121094 L 231.699219 352.722656 L 269.679688 345.058594 L 268.179688 300.691406 L 268.789062 300.671875 L 270.300781 345.554688 L 231.839844 353.3125 L 187.996094 365.746094 "/>
<path style=" stroke:none;fill-rule:nonzero;fill:rgb(100%,100%,100%);fill-opacity:1;" d="M 187.683594 365.46875 L 182.730469 319.246094 L 183.332031 319.179688 L 188.285156 365.402344 L 187.683594 365.46875 "/>
<path style=" stroke:none;fill-rule:nonzero;fill:rgb(100%,100%,100%);fill-opacity:1;" d="M 163.257812 261.378906 L 139.285156 319.105469 L 181.765625 318.378906 Z M 127.492188 319.914062 L 125.304688 351.183594 L 138.371094 319.726562 Z M 125.152344 353.132812 L 124.570312 352.996094 L 126.882812 319.921875 L 70.289062 320.886719 L 70.28125 320.28125 L 126.925781 319.316406 L 138.039062 160.355469 L 138.640625 160.398438 L 127.535156 319.304688 L 138.625 319.117188 L 163.328125 259.632812 L 182.59375 318.972656 L 139.03125 319.714844 L 125.152344 353.132812 "/>
<path style=" stroke:none;fill-rule:nonzero;fill:rgb(100%,100%,100%);fill-opacity:1;" d="M 270.167969 345.554688 L 269.8125 345.058594 L 311.195312 315.371094 L 228.296875 214.199219 L 228.769531 213.816406 L 312.074219 315.488281 L 311.8125 315.675781 L 270.167969 345.554688 "/>
<path style=" stroke:none;fill-rule:nonzero;fill:rgb(100%,100%,100%);fill-opacity:1;" d="M 342.308594 276.390625 C 342.308594 277.441406 341.453125 278.292969 340.398438 278.292969 C 339.347656 278.292969 338.496094 277.441406 338.496094 276.390625 C 338.496094 275.335938 339.347656 274.484375 340.398438 274.484375 C 341.453125 274.484375 342.308594 275.335938 342.308594 276.390625 "/>
<g clip-path="url(#clip4)" clip-rule="nonzero">
<path style=" stroke:none;fill-rule:nonzero;fill:rgb(100%,100%,100%);fill-opacity:1;" d="M 366.035156 183.226562 C 366.035156 184.277344 365.183594 185.128906 364.132812 185.128906 C 363.078125 185.128906 362.226562 184.277344 362.226562 183.226562 C 362.226562 182.171875 363.078125 181.320312 364.132812 181.320312 C 365.183594 181.320312 366.035156 182.171875 366.035156 183.226562 "/>
</g>
<path style=" stroke:none;fill-rule:nonzero;fill:rgb(100%,100%,100%);fill-opacity:1;" d="M 340.507812 276.9375 L 283.121094 217.464844 L 283.554688 217.042969 L 340.292969 275.839844 L 357.386719 233.351562 L 363.722656 183.1875 L 364.324219 183.265625 L 357.976562 233.507812 L 357.964844 233.542969 L 340.507812 276.9375 "/>
<g clip-path="url(#clip5)" clip-rule="nonzero">
<path style=" stroke:none;fill-rule:nonzero;fill:rgb(100%,100%,100%);fill-opacity:1;" d="M 327.441406 178.164062 L 315.585938 265.984375 L 345.195312 180.632812 Z M 315.167969 269.042969 L 314.582031 268.902344 L 326.921875 177.480469 L 345.398438 180.050781 L 358.226562 143.070312 L 327.214844 81.859375 L 327.757812 81.585938 L 358.882812 143.023438 L 358.839844 143.148438 L 346.007812 180.136719 L 366.078125 182.925781 L 365.992188 183.527344 L 345.808594 180.71875 L 315.167969 269.042969 "/>
</g>
<path style=" stroke:none;fill-rule:nonzero;fill:rgb(100%,100%,100%);fill-opacity:1;" d="M 311.878906 314.71875 L 311.390625 314.351562 L 340.160156 276.207031 L 340.644531 276.570312 L 311.878906 314.71875 "/>
<path style=" stroke:none;fill-rule:nonzero;fill:rgb(100%,100%,100%);fill-opacity:1;" d="M 363.726562 183.265625 L 358.253906 143.085938 L 358.855469 143.003906 L 364.324219 183.183594 L 363.726562 183.265625 "/>
<path style=" stroke:none;fill-rule:nonzero;fill:rgb(100%,100%,100%);fill-opacity:1;" d="M 126.082031 352.464844 L 70.136719 320.847656 L 70.433594 320.320312 L 126.378906 351.9375 L 126.082031 352.464844 "/>
<path style=" stroke:none;fill-rule:nonzero;fill:rgb(7.058716%,7.058716%,7.058716%);fill-opacity:1;" d="M 249.816406 26.261719 C 249.816406 27.066406 249.164062 27.71875 248.359375 27.71875 C 247.554688 27.71875 246.898438 27.066406 246.898438 26.261719 C 246.898438 25.453125 247.554688 24.800781 248.359375 24.800781 C 249.164062 24.800781 249.816406 25.453125 249.816406 26.261719 "/>
<path style=" stroke:none;fill-rule:nonzero;fill:rgb(100%,100%,100%);fill-opacity:1;" d="M 73.722656 139.882812 L 73.144531 139.695312 L 108.5 31.441406 L 240.433594 92.636719 L 248.105469 25.800781 L 292.320312 47.390625 L 292.054688 47.933594 L 248.609375 26.71875 L 240.941406 93.539062 L 240.558594 93.363281 L 108.867188 32.277344 L 73.722656 139.882812 "/>
<g clip-path="url(#clip6)" clip-rule="nonzero">
<path style=" stroke:none;fill-rule:nonzero;fill:rgb(100%,100%,100%);fill-opacity:1;" d="M 131.675781 142.105469 L 90.855469 183.054688 C 88.304688 185.5625 88.304688 189.757812 90.855469 192.265625 L 131.675781 233.265625 L 140.863281 223.949219 L 104.683594 187.660156 L 140.863281 151.320312 Z M 242.152344 142.105469 L 232.863281 151.320312 L 269.09375 187.660156 L 232.863281 223.949219 L 242.152344 233.265625 L 282.972656 192.265625 C 285.472656 189.757812 285.472656 185.5625 282.972656 183.054688 Z M 160.761719 181.109375 C 157.140625 181.109375 154.230469 184.027344 154.230469 187.660156 C 154.230469 191.292969 157.140625 194.210938 160.761719 194.210938 C 164.386719 194.210938 167.292969 191.292969 167.292969 187.660156 C 167.292969 184.027344 164.386719 181.109375 160.761719 181.109375 Z M 186.886719 181.109375 C 183.265625 181.109375 180.355469 184.027344 180.355469 187.660156 C 180.355469 191.292969 183.265625 194.210938 186.886719 194.210938 C 190.511719 194.210938 193.417969 191.292969 193.417969 187.660156 C 193.417969 184.027344 190.511719 181.109375 186.886719 181.109375 Z M 213.015625 181.109375 C 209.390625 181.109375 206.484375 184.027344 206.484375 187.660156 C 206.484375 191.292969 209.390625 194.210938 213.015625 194.210938 C 216.636719 194.210938 219.546875 191.292969 219.546875 187.660156 C 219.546875 184.027344 216.636719 181.109375 213.015625 181.109375 Z M 213.015625 181.109375 "/>
</g>
</g>
</svg>
